<svg xmlns="http://www.w3.org/2000/svg" viewBox="0 0 512 512" style="color-scheme: light dark;">
  <rect id="background" width="512" height="512" />
  <path id="logo" fill="#3b82f6" d="M155.5,395.1C152.361,395.089 148.538,391.939 148.5,388.8C148.25,368 148,270.3 148,270.3L121.8,269.6C91.8,268.9 91.3,268.7 85.6,259.6C82.3,254.4 79.6,247 80.6,246.1C80.9,245.7 96.2,245.6 114.6,245.8L148,246.1C148,246.1 148.333,144.6 148.5,123C148.524,119.936 151.936,116.507 155,116.5C189.75,116.417 322.25,116.417 357,116.5C360.064,116.507 363.477,119.936 363.5,123C363.667,145.05 364,248.8 364,248.8L371.3,249.4C375.2,249.7 388.6,250.4 401,251.1C413.4,251.7 425.5,252.6 428,252.9L432.5,253.5L427,256.2C416.4,261.4 403.4,266.1 397,266.9C393.4,267.4 384.5,268.1 377.3,268.5L364,269.2C364,269.2 363.667,367.95 363.5,389C363.476,392.064 360.064,395.499 357,395.5C322.333,395.517 190.25,395.217 155.5,395.1ZM340,372L340,268.7L312.3,269.3C297,269.7 259.2,270 228.3,270L172,270L172,372L340,372ZM340,247L340,140L172,140L172,245.8L245.2,245.9C285.4,246 318.6,246.2 318.8,246.5C319.1,246.8 324,247 329.7,247L340,247Z"/>
  <style>
    @media (prefers-color-scheme: light) { #background { fill: #f9fafb; } }
    @media (prefers-color-scheme: dark) { #background { fill: #121212; } }
  </style>
</svg>